<?xml version="1.0" encoding="UTF-8"?>
<svg xmlns="http://www.w3.org/2000/svg" xmlns:xlink="http://www.w3.org/1999/xlink" viewBox="0 0 50 50" width="50px" height="50px">
<g id="surface51915986">
<path style="fill-rule:nonzero;fill:#374151d9;fill-opacity:1;stroke-width:10;stroke-linecap:butt;stroke-linejoin:round;stroke:rgb(100%,100%,100%);stroke-opacity:.6;stroke-miterlimit:10;" d="M 165.11293 86.000003 C 165.11293 129.636217 129.636217 165.11293 86.000003 165.11293 C 42.363789 165.11293 6.887076 129.636217 6.887076 86.000003 C 6.887076 42.363789 42.363789 6.887076 86.000003 6.887076 C 129.636217 6.887076 165.11293 42.363789 165.11293 86.000003 Z M 127.282515 82.562171 L 89.437835 82.562171 L 89.437835 44.717491 L 82.562171 44.717491 L 82.562171 82.562171 L 44.717491 82.562171 L 44.717491 89.437835 L 82.562171 89.437835 L 82.562171 127.282515 L 89.437835 127.282515 L 89.437835 89.437835 L 127.282515 89.437835 Z M 127.282515 82.562171 " transform="matrix(0.273837,0,0,0.273837,1.45,1.45)"/>
<path style=" stroke:none;fill-rule:nonzero;fill:#374151d9;fill-opacity:1;" d="M 25 3.335938 C 13.050781 3.335938 3.335938 13.050781 3.335938 25 C 3.335938 36.949219 13.050781 46.664062 25 46.664062 C 36.949219 46.664062 46.664062 36.949219 46.664062 25 C 46.664062 13.050781 36.949219 3.335938 25 3.335938 Z M 36.304688 25.941406 L 25.941406 25.941406 L 25.941406 36.304688 L 24.058594 36.304688 L 24.058594 25.941406 L 13.695312 25.941406 L 13.695312 24.058594 L 24.058594 24.058594 L 24.058594 13.695312 L 25.941406 13.695312 L 25.941406 24.058594 L 36.304688 24.058594 Z M 36.304688 25.941406 "/>
</g>
</svg>
